<?xml version="1.0" standalone="no"?>
<!DOCTYPE svg PUBLIC "-//W3C//DTD SVG 20010904//EN"
 "http://www.w3.org/TR/2001/REC-SVG-20010904/DTD/svg10.dtd">
<svg version="1.0" xmlns="http://www.w3.org/2000/svg"
 width="500.000000pt" height="500.000000pt" viewBox="0 0 500.000000 500.000000"
 preserveAspectRatio="xMidYMid meet">
<metadata>
Created by potrace 1.14, written by Peter Selinger 2001-2017
</metadata>
<g transform="translate(0.000000,500.000000) scale(0.100000,-0.100000)"
fill="#000000" stroke="none">
<path d="M2676 4163 c-4 -5 -393 -8 -864 -8 -928 -1 -894 1 -972 -55 -56 -41
-120 -111 -125 -139 -2 -9 -4 -16 -5 -16 -2 0 -5 -14 -16 -60 -6 -29 -10
-1613 -3 -1722 1 -29 5 -53 8 -53 3 0 7 -16 9 -36 3 -52 58 -144 76 -127 3 3
6 1 6 -5 0 -7 6 -12 13 -12 21 0 97 -39 97 -50 0 -12 -1 -12 -117 -14 -79 -1
-95 -4 -107 -21 -9 -11 -16 -26 -16 -33 0 -6 -11 -34 -24 -61 -13 -27 -26 -61
-30 -75 -3 -14 -11 -26 -16 -26 -6 0 -10 -9 -10 -20 0 -11 -4 -20 -10 -20 -5
0 -10 -6 -10 -12 0 -7 -6 -24 -13 -38 -7 -14 -21 -47 -31 -75 -17 -46 -56
-130 -77 -165 -5 -8 -12 -22 -15 -30 -22 -54 -39 -91 -61 -133 -14 -27 -23
-51 -20 -54 3 -2 -1 -12 -9 -21 -8 -10 -15 -21 -15 -27 0 -5 -6 -16 -12 -24
-13 -15 -15 -26 -22 -107 -4 -49 -1 -65 13 -81 18 -20 119 -86 136 -89 6 -1
25 -5 41 -9 23 -5 2162 -11 2485 -7 30 1 361 1 735 0 566 -1 684 1 705 12 14
8 29 13 33 12 9 -3 90 57 95 70 2 5 9 8 17 8 21 0 12 127 -13 179 -12 25 -22
51 -22 58 0 7 -4 13 -10 13 -5 0 -13 12 -16 28 -8 32 -56 126 -67 130 -4 2 -5
8 -1 13 3 5 1 9 -4 9 -5 0 -9 6 -9 13 0 6 -21 56 -47 109 -25 54 -46 102 -46
108 0 5 -4 10 -8 10 -5 0 -14 18 -21 40 -6 22 -16 40 -21 40 -6 0 -10 8 -10
17 0 21 -91 203 -102 203 -4 0 -8 7 -8 14 0 8 -15 26 -32 39 -26 19 -43 24
-78 22 -25 -2 -49 -4 -55 -6 -17 -4 -45 12 -45 26 0 8 26 28 58 45 125 68 134
90 136 333 1 81 -3 147 -7 147 -5 0 -5 5 -1 11 10 16 11 99 1 99 -4 0 -4 8 1
18 4 9 7 36 6 59 0 23 3 40 7 37 5 -3 9 0 9 5 0 6 -4 11 -9 11 -5 0 -6 12 -2
28 5 19 3 31 -8 40 -9 8 -10 11 -3 7 6 -3 12 -2 12 2 0 5 -6 15 -12 22 -11 10
-9 11 7 5 16 -6 18 -5 10 7 -11 14 -13 125 -3 135 3 3 2 21 -2 40 -4 18 -4 34
1 34 5 0 4 11 -1 25 -7 18 -6 25 3 25 8 0 7 4 -3 10 -13 9 -13 10 0 10 13 0
13 1 0 10 -11 7 -11 10 -2 10 9 0 10 5 3 18 -7 13 -6 23 1 30 9 9 8 12 -2 12
-12 0 -13 2 -1 9 10 6 10 13 3 28 -8 14 -8 23 0 31 9 9 8 12 -2 12 -13 0 -13
2 -1 9 12 8 12 12 2 24 -9 12 -9 16 0 19 9 3 9 9 0 25 -8 16 -8 24 0 29 8 4 7
9 -2 15 -8 5 -9 9 -4 9 13 0 14 80 1 80 -6 0 -1 7 10 15 19 15 19 15 -1 8 -18
-6 -18 -5 -6 10 11 14 11 17 0 17 -11 0 -11 2 1 10 13 9 13 11 0 20 -13 9 -13
10 0 10 13 0 13 1 0 10 -10 6 -11 10 -3 10 15 0 13 21 -2 32 -6 5 -6 8 2 8 8
0 9 9 3 30 -5 17 -5 30 -1 30 11 0 8 44 -4 52 -6 5 -5 8 3 8 10 0 10 5 2 20
-8 15 -8 20 2 20 9 0 9 3 -2 10 -8 5 -10 10 -4 10 7 0 9 15 4 45 -4 25 -3 45
2 45 5 0 6 5 3 10 -4 6 -11 7 -17 4 -6 -4 -6 1 1 14 8 14 8 23 1 27 -8 5 -7
12 2 23 10 12 10 14 1 8 -8 -4 -13 -2 -13 6 0 24 -25 68 -38 68 -7 0 -10 5 -7
10 3 6 1 10 -4 10 -6 0 -11 7 -11 16 0 9 -9 18 -20 21 -11 3 -20 12 -20 21 0
8 -3 12 -7 9 -3 -4 -12 1 -20 11 -10 11 -12 12 -8 2 4 -8 -3 -4 -15 10 -12 14
-18 18 -14 10 6 -12 5 -13 -8 -3 -8 7 -18 10 -21 6 -4 -3 -7 -1 -7 5 0 7 -5
12 -11 12 -5 0 -7 -6 -4 -12 4 -7 -1 -4 -9 6 -10 13 -16 15 -16 7 0 -10 -3
-11 -13 -2 -8 6 -17 8 -20 5 -3 -4 -14 -3 -24 1 -10 5 -21 8 -24 7 -49 -9 -59
-9 -59 -1 0 6 -6 7 -12 2 -21 -12 -38 -12 -38 0 0 8 -3 8 -8 2 -10 -14 -74
-17 -66 -3 5 7 2 8 -7 2 -20 -12 -69 -14 -69 -2 0 6 -7 5 -16 -3 -13 -10 -17
-10 -25 2 -7 11 -9 10 -9 -6 0 -16 -2 -17 -10 -5 -10 17 -39 20 -57 6 -8 -5
-19 -3 -30 5 -15 12 -16 12 -8 -1 8 -13 7 -13 -8 -1 -9 7 -17 9 -17 4 0 -11
-29 -11 -46 -1 -5 4 -16 3 -24 -3 -20 -12 -33 -11 -24 2 4 8 0 8 -15 0 -14 -8
-21 -8 -21 -1 0 7 -7 7 -21 -1 -15 -8 -19 -8 -15 0 5 8 0 8 -17 2 -16 -6 -28
-6 -35 1 -8 8 -15 8 -27 -2 -12 -10 -15 -10 -15 1 0 12 -2 12 -9 0 -5 -8 -11
-9 -15 -3 -5 9 -59 7 -76 -3 -5 -3 -11 -1 -15 4 -5 10 -36 7 -55 -4 -6 -3 -10
-1 -10 6 0 8 -4 8 -16 -2 -13 -10 -17 -10 -25 2 -7 11 -9 11 -9 0 0 -10 -3
-11 -14 -2 -11 9 -16 9 -21 0 -6 -8 -10 -7 -16 2 -7 12 -9 12 -9 0 0 -11 -3
-11 -15 -1 -12 10 -15 10 -15 -1 0 -10 -3 -10 -11 -2 -7 7 -20 8 -34 3 -13 -5
-26 -5 -32 1 -5 5 -13 6 -17 2z m1449 -1232 c3 -5 2 -12 -3 -15 -5 -3 -9 1 -9
9 0 17 3 19 12 6z"/>
</g>
</svg>
